<svg width="287" height="42" viewBox="0 0 287 42" fill="none" xmlns="http://www.w3.org/2000/svg">
<path fill-rule="evenodd" clip-rule="evenodd" d="M51.2521 12.8257L36.4548 2.37129C36.2896 2.23911 36.1169 2.11621 35.9387 2.00086L35.8867 1.96344L35.884 1.96756C34.8987 1.34445 33.7341 0.978485 32.4811 0.978485C32.4597 0.978485 32.4391 0.981575 32.4178 0.981575C32.3961 0.981575 32.3754 0.978485 32.3541 0.978485C30.3907 0.978485 28.636 1.86628 27.467 3.25977L27.4659 3.25908L27.4608 3.26663C27.2812 3.4812 27.1198 3.71019 26.9695 3.94741L7.81903 30.4923L7.81937 30.4927C7.52556 30.8518 0.441023 40.3487 0.230469 40.7669L0.328865 40.7006H9.90083C9.90083 40.7006 16.471 41.3416 19.4828 36.6005L19.5227 36.5593L33.8734 16.0995L43.6191 22.9955L44.7132 24.3694L52.3447 14.2013L51.2521 12.8257Z" fill="#F4812B"/>
<path fill-rule="evenodd" clip-rule="evenodd" d="M90.2451 30.4918L90.2457 30.4921C90.2459 30.4915 90.2462 30.4907 90.2467 30.4897L90.2451 30.4918Z" fill="#16967E"/>
<path fill-rule="evenodd" clip-rule="evenodd" d="M79.2687 7.33724C79.2687 3.82554 76.4159 0.978485 72.8963 0.978485C70.9329 0.978485 69.1779 1.86594 68.0092 3.25977L68.0085 3.25908L68.0027 3.26663C67.8234 3.4812 67.6621 3.71019 67.5121 3.94707L50.3133 27.7864C50.3085 27.7816 50.3027 27.7747 50.3006 27.7747C50.2755 27.7709 49.661 28.6412 48.7627 29.9359L48.3612 30.4924L48.3619 30.4927C48.1204 30.7876 47.9078 31.1055 47.7217 31.4406C45.0199 35.3574 41.1646 41.0086 41.1646 41.0086L53.1004 40.8706C53.096 40.8692 53.0929 40.8627 53.0887 40.8599C53.1589 40.8623 53.2277 40.8706 53.2983 40.8706C55.4795 40.8706 57.4027 39.7758 58.5515 38.108L58.5525 38.1086L77.8732 11.3028C78.0054 11.1377 78.1289 10.9653 78.2441 10.7875L78.2816 10.7356L78.2778 10.7329C78.9023 9.74967 79.2687 8.58757 79.2687 7.33724" fill="#16967E"/>
<path fill-rule="evenodd" clip-rule="evenodd" d="M90.4135 40.7668C90.4135 40.7668 98.5463 41.564 100.864 34.8592C101.085 34.3185 101.235 33.7424 101.3 33.1392C101.301 33.1296 101.304 33.121 101.305 33.111L101.303 33.1124C101.325 32.8982 101.34 32.6816 101.34 32.4615C101.34 28.9498 98.4864 26.1028 94.9672 26.1028C92.786 26.1028 90.8624 27.1979 89.7137 28.8654L89.7126 28.8647L81.1343 40.7668H90.4135Z" fill="#91D0AC"/>
<path fill-rule="evenodd" clip-rule="evenodd" d="M99.5859 7.37508C99.5859 3.86338 96.7328 1.01633 93.2136 1.01633C91.2501 1.01633 89.4952 1.90378 88.3261 3.29761L88.3254 3.29692L88.3199 3.30448C88.1403 3.51904 87.9793 3.74803 87.829 3.98491L70.6302 27.8239C70.6254 27.8194 70.6196 27.8126 70.6175 27.8122C70.5924 27.8088 69.9783 28.6787 69.0803 29.973L68.6781 30.5302L68.6788 30.5305C68.4377 30.8251 68.2247 31.1433 68.0389 31.4784C65.3368 35.3949 61.4814 41.0461 61.4814 41.0461L73.4173 40.9084C73.4129 40.9067 73.4101 40.9005 73.406 40.8978C73.4758 40.8998 73.5446 40.9084 73.6155 40.9084C75.7967 40.9084 77.7199 39.8132 78.8687 38.1458L78.8697 38.1465L98.1902 11.3403C98.3226 11.1752 98.4461 11.0032 98.5614 10.8253L98.5989 10.7735L98.5948 10.7707C99.2192 9.78751 99.5859 8.62507 99.5859 7.37508" fill="#91D0AC"/>
<path fill-rule="evenodd" clip-rule="evenodd" d="M38.5543 38.9031L36.3931 38.7771C37.238 39.2721 37.987 39.5794 38.5543 38.9031Z" fill="#F4812B"/>
<path fill-rule="evenodd" clip-rule="evenodd" d="M59.1819 10.23C61.8555 6.34956 65.3991 1.1553 65.3991 1.1553L53.4632 1.29331C53.4677 1.29503 53.4708 1.30121 53.4749 1.30396C53.4047 1.30155 53.3359 1.29331 53.2654 1.29331C51.0842 1.29331 49.1606 2.38847 48.0119 4.05592L48.0108 4.05523L28.6904 30.8614C28.5583 31.0266 28.4348 31.1986 28.3192 31.3764L28.282 31.4282L28.2858 31.431C28.1475 31.6486 28.0243 31.8766 27.9125 32.1107C25.239 35.9908 21.6953 41.1854 21.6953 41.1854L33.6312 41.0474C33.6267 41.046 33.6236 41.0398 33.6195 41.0367C33.6897 41.0391 33.7585 41.0474 33.829 41.0474C36.0103 41.0474 37.9338 39.9526 39.0826 38.2851L39.0836 38.2858L58.404 11.4796C58.5365 11.3145 58.6596 11.1425 58.7752 10.9647L58.8124 10.9128L58.8086 10.9097C58.9466 10.6921 59.0701 10.4645 59.1819 10.23" fill="#F4812B"/>
<path fill-rule="evenodd" clip-rule="evenodd" d="M36.3932 38.7769C36.3915 38.7759 36.3894 38.7748 36.3877 38.7738L34.9575 38.6934L36.3932 38.7769Z" fill="#F4812B"/>
<path fill-rule="evenodd" clip-rule="evenodd" d="M151.614 10.8768C151.614 7.85569 151.431 4.59117 152.841 2.29272H146.577C145.042 2.29272 144.611 3.56434 144.059 4.83321L133.434 30.0406C133.066 30.8862 132.881 31.4901 132.329 31.4901C131.838 31.4901 131.654 30.4625 131.346 29.5576L122.256 3.20112C122.011 2.4146 121.09 2.29272 120.353 2.29272H112.738C114.213 3.20112 114.274 4.04634 114.274 5.67843V20.7926C114.274 27.3185 114.028 36.8697 111.756 40.0738L111.202 40.8593H118.512C117.159 38.8657 117.159 34.9358 117.159 30.2215L117.221 10.575C117.221 9.66802 117.221 8.5811 117.774 8.5811C118.327 8.5811 118.757 10.0316 119.432 11.7852L131.1 41.4649L144.859 9.48812C145.042 9.00303 145.227 8.5811 145.656 8.5811C146.086 8.5811 146.086 9.30617 146.086 9.91005V29.9795C146.086 33.3649 146.086 37.8382 144.98 40.8593L153.906 40.8023C152.687 38.4503 152.399 35.5583 152.106 32.9402C151.307 25.6878 151.614 18.1309 151.614 10.8768" fill="#1E292F"/>
<path fill-rule="evenodd" clip-rule="evenodd" d="M212.15 4.72853C212.157 5.57959 211.906 6.70873 211.428 7.53713C210.357 9.38447 205.897 17.0602 204.215 19.626C203.749 20.3515 203.377 20.4211 203.107 19.8945L202.091 17.3077C201.344 15.037 200.321 12.421 199.217 9.99247L199.165 9.86098L199.171 9.89017C198.254 7.88113 197.285 6.00975 196.379 4.59155C195.273 2.83793 194.843 2.29413 192.632 2.29413H187.351C189.869 4.53112 193 9.24612 195.456 14.2028C197.915 19.1595 199.755 23.2088 199.755 27.4401V32.9402C199.755 35.6623 199.755 38.8053 198.406 40.861H206.634C205.816 39.6148 205.35 37.4273 205.351 35.7296L205.367 27.9715C205.816 21.7405 208.085 18.7585 211.916 12.994L218.918 2.29413H211.18C211.851 3.03911 212.144 3.82116 212.15 4.72853" fill="#1E292F"/>
<path fill-rule="evenodd" clip-rule="evenodd" d="M235.377 1.689C230.586 1.689 225.857 2.29425 220.944 2.29425C222.296 4.34963 222.296 7.49399 222.296 10.2116V32.94C222.296 35.3593 222.356 38.7453 220.944 40.8594H229.419C228.007 38.7453 227.821 35.3593 227.821 32.94V4.10794H232.736C239.001 4.10794 240.412 7.73397 240.412 12.4507C240.412 21.215 234.516 22.0001 229.787 22.6054C230.954 23.3291 231.875 23.9343 235.13 23.9343C242.44 23.9343 246.801 18.7957 246.801 11.8451C246.801 5.92061 243.176 1.689 235.377 1.689" fill="#1E292F"/>
<path fill-rule="evenodd" clip-rule="evenodd" d="M268.223 1.32721C255.449 1.32721 248.694 10.8784 248.694 22.362C248.694 33.1224 254.342 41.828 267.24 41.828C280.014 41.828 286.769 32.2761 286.769 20.7918C286.769 10.0314 281.12 1.32721 268.223 1.32721V1.32721ZM267.729 39.1673C257.843 39.1673 255.08 28.6504 255.08 20.6699C255.08 11.9656 258.886 3.98613 267.729 3.98613C277.62 3.98613 280.383 14.5044 280.383 22.4822C280.383 31.1882 276.575 39.1673 267.729 39.1673Z" fill="#1E292F"/>
<path fill-rule="evenodd" clip-rule="evenodd" d="M190.538 34.7561C190.457 34.5474 179.125 3.76704 179.125 3.76704C178.958 3.26822 178.794 2.77488 178.637 2.29425H171.39L171.329 3.92668C171.329 4.89069 171.12 6.63435 170.053 8.88851L160.91 29.2179C158.522 33.8783 156.342 37.7195 155.176 39.1676L153.96 40.8385L161.503 40.8594C161.379 40.0739 161.317 39.3489 161.317 38.5634C161.317 35.1176 164.083 29.1942 166.723 23.9357H180.603L187.297 40.8594H193.868C193.868 40.8594 191.882 38.2256 190.538 34.7561V34.7561ZM167.767 21.5168L173.11 8.58091C173.234 8.27777 173.601 7.13043 174.154 7.13043C174.707 7.13043 175.013 8.15761 175.136 8.58091L179.81 21.5168H167.767Z" fill="#1E292F"/>
</svg>
